<mxfile host="app.diagrams.net" agent="Mozilla/5.0 (Windows NT 10.0; Win64; x64; rv:135.0) Gecko/20100101 Firefox/135.0" version="26.0.16">
  <diagram name="Page-1" id="03018318-947c-dd8e-b7a3-06fadd420f32">
    <mxGraphModel dx="1500" dy="1617" grid="1" gridSize="10" guides="1" tooltips="1" connect="1" arrows="1" fold="1" page="1" pageScale="1" pageWidth="1100" pageHeight="850" background="none" math="0" shadow="0">
      <root>
        <mxCell id="0" />
        <mxCell id="1" parent="0" />
        <mxCell id="677b7b8949515195-1" value="" style="whiteSpace=wrap;html=1;rounded=0;shadow=0;labelBackgroundColor=none;strokeWidth=1;fontFamily=Verdana;fontSize=12;align=center;comic=1;fillColor=#f5f5f5;fontColor=#333333;strokeColor=#666666;" parent="1" vertex="1">
          <mxGeometry x="20" y="20" width="1060" height="810" as="geometry" />
        </mxCell>
        <mxCell id="677b7b8949515195-2" value="LOGO" style="whiteSpace=wrap;html=1;rounded=0;shadow=0;labelBackgroundColor=none;strokeWidth=1;fontFamily=Verdana;fontSize=28;align=center;comic=1;" parent="1" vertex="1">
          <mxGeometry x="40" y="45" width="190" height="50" as="geometry" />
        </mxCell>
        <mxCell id="677b7b8949515195-3" value="Search" style="strokeWidth=1;shadow=0;dashed=0;align=center;html=1;shape=mxgraph.mockup.forms.searchBox;strokeColor=#999999;mainText=;strokeColor2=#008cff;fontColor=#666666;fontSize=17;align=left;spacingLeft=3;rounded=0;labelBackgroundColor=none;comic=1;" parent="1" vertex="1">
          <mxGeometry x="1210" y="-80" width="220" height="30" as="geometry" />
        </mxCell>
        <mxCell id="677b7b8949515195-9" value="" style="line;strokeWidth=1;html=1;rounded=0;shadow=0;labelBackgroundColor=none;fillColor=none;fontFamily=Verdana;fontSize=14;fontColor=#000000;align=center;comic=1;" parent="1" vertex="1">
          <mxGeometry x="20" y="110" width="1060" height="10" as="geometry" />
        </mxCell>
        <mxCell id="677b7b8949515195-15" value="&lt;div align=&quot;left&quot;&gt;METADATA&lt;/div&gt;" style="whiteSpace=wrap;html=1;rounded=0;shadow=0;labelBackgroundColor=none;strokeWidth=1;fontFamily=Verdana;fontSize=12;align=left;verticalAlign=top;spacing=10;comic=1;" parent="1" vertex="1">
          <mxGeometry x="30" y="640" width="1040" height="180" as="geometry" />
        </mxCell>
        <mxCell id="677b7b8949515195-26" value="" style="whiteSpace=wrap;html=1;rounded=0;shadow=0;labelBackgroundColor=none;strokeWidth=1;fontFamily=Verdana;fontSize=12;align=center;comic=1;" parent="1" vertex="1">
          <mxGeometry x="250" y="130" width="820" height="500" as="geometry" />
        </mxCell>
        <mxCell id="6poOxasavAYyhDI9yIW7-5" value="" style="swimlane;shape=rect;strokeColor=#EEEEEE;fillColor=#ffffff;fontColor=#000000;fontStyle=0;childLayout=stackLayout;horizontal=1;startSize=0;horizontalStack=0;resizeParent=1;resizeParentMax=0;resizeLast=0;collapsible=0;marginBottom=0;whiteSpace=wrap;html=1;shadow=1;rounded=0;" vertex="1" parent="1">
          <mxGeometry x="30" y="130" width="200" height="504" as="geometry" />
        </mxCell>
        <mxCell id="6poOxasavAYyhDI9yIW7-6" value="Open wallet" style="text;strokeColor=none;align=left;verticalAlign=middle;spacing=16;overflow=visible;points=[[0,0.5],[1,0.5]];portConstraint=eastwest;rotatable=0;whiteSpace=wrap;html=1;fillColor=none;fontSize=15;fontColor=inherit;" vertex="1" parent="6poOxasavAYyhDI9yIW7-5">
          <mxGeometry width="200" height="42" as="geometry" />
        </mxCell>
        <mxCell id="6poOxasavAYyhDI9yIW7-8" value="Create wallet" style="text;strokeColor=none;align=left;verticalAlign=middle;spacing=16;overflow=visible;points=[[0,0.5],[1,0.5]];portConstraint=eastwest;rotatable=0;whiteSpace=wrap;html=1;fillColor=none;fontSize=15;fontColor=inherit;" vertex="1" parent="6poOxasavAYyhDI9yIW7-5">
          <mxGeometry y="42" width="200" height="42" as="geometry" />
        </mxCell>
        <mxCell id="6poOxasavAYyhDI9yIW7-29" value="Wallet Settings" style="text;strokeColor=none;align=left;verticalAlign=middle;spacing=16;overflow=visible;points=[[0,0.5],[1,0.5]];portConstraint=eastwest;rotatable=0;whiteSpace=wrap;html=1;fillColor=none;fontSize=15;fontColor=inherit;" vertex="1" parent="6poOxasavAYyhDI9yIW7-5">
          <mxGeometry y="84" width="200" height="42" as="geometry" />
        </mxCell>
        <mxCell id="6poOxasavAYyhDI9yIW7-28" value="Save wallet state" style="text;strokeColor=none;align=left;verticalAlign=middle;spacing=16;overflow=visible;points=[[0,0.5],[1,0.5]];portConstraint=eastwest;rotatable=0;whiteSpace=wrap;html=1;fillColor=none;fontSize=15;fontColor=inherit;" vertex="1" parent="6poOxasavAYyhDI9yIW7-5">
          <mxGeometry y="126" width="200" height="42" as="geometry" />
        </mxCell>
        <mxCell id="6poOxasavAYyhDI9yIW7-9" value="New entry" style="text;strokeColor=none;align=left;verticalAlign=middle;spacing=16;overflow=visible;points=[[0,0.5],[1,0.5]];portConstraint=eastwest;rotatable=0;whiteSpace=wrap;html=1;fillColor=none;fontSize=15;fontColor=inherit;" vertex="1" parent="6poOxasavAYyhDI9yIW7-5">
          <mxGeometry y="168" width="200" height="42" as="geometry" />
        </mxCell>
        <mxCell id="6poOxasavAYyhDI9yIW7-10" value="Edit entry" style="text;strokeColor=none;align=left;verticalAlign=middle;spacing=16;overflow=visible;points=[[0,0.5],[1,0.5]];portConstraint=eastwest;rotatable=0;whiteSpace=wrap;html=1;fillColor=none;fontSize=15;fontColor=inherit;" vertex="1" parent="6poOxasavAYyhDI9yIW7-5">
          <mxGeometry y="210" width="200" height="42" as="geometry" />
        </mxCell>
        <mxCell id="6poOxasavAYyhDI9yIW7-30" value="Duplicate entry" style="text;strokeColor=none;align=left;verticalAlign=middle;spacing=16;overflow=visible;points=[[0,0.5],[1,0.5]];portConstraint=eastwest;rotatable=0;whiteSpace=wrap;html=1;fillColor=none;fontSize=15;fontColor=inherit;" vertex="1" parent="6poOxasavAYyhDI9yIW7-5">
          <mxGeometry y="252" width="200" height="42" as="geometry" />
        </mxCell>
        <mxCell id="6poOxasavAYyhDI9yIW7-11" value="Delete entry" style="text;strokeColor=#b85450;align=left;verticalAlign=middle;spacing=16;overflow=visible;points=[[0,0.5],[1,0.5]];portConstraint=eastwest;rotatable=0;whiteSpace=wrap;html=1;fillColor=#f8cecc;fontSize=15;" vertex="1" parent="6poOxasavAYyhDI9yIW7-5">
          <mxGeometry y="294" width="200" height="42" as="geometry" />
        </mxCell>
        <mxCell id="6poOxasavAYyhDI9yIW7-12" value="Find " style="text;strokeColor=none;align=left;verticalAlign=middle;spacing=16;overflow=visible;points=[[0,0.5],[1,0.5]];portConstraint=eastwest;rotatable=0;whiteSpace=wrap;html=1;fillColor=none;fontSize=15;fontColor=inherit;" vertex="1" parent="6poOxasavAYyhDI9yIW7-5">
          <mxGeometry y="336" width="200" height="42" as="geometry" />
        </mxCell>
        <mxCell id="6poOxasavAYyhDI9yIW7-13" value="Settings" style="text;strokeColor=none;align=left;verticalAlign=middle;spacing=16;overflow=visible;points=[[0,0.5],[1,0.5]];portConstraint=eastwest;rotatable=0;whiteSpace=wrap;html=1;fillColor=none;fontSize=15;fontColor=inherit;" vertex="1" parent="6poOxasavAYyhDI9yIW7-5">
          <mxGeometry y="378" width="200" height="42" as="geometry" />
        </mxCell>
        <mxCell id="6poOxasavAYyhDI9yIW7-14" value="Option item 9" style="text;strokeColor=none;align=left;verticalAlign=middle;spacing=16;overflow=visible;points=[[0,0.5],[1,0.5]];portConstraint=eastwest;rotatable=0;whiteSpace=wrap;html=1;fillColor=#EEEEEE;fontSize=15;fontColor=inherit;" vertex="1" parent="6poOxasavAYyhDI9yIW7-5">
          <mxGeometry y="420" width="200" height="42" as="geometry" />
        </mxCell>
        <mxCell id="6poOxasavAYyhDI9yIW7-15" value="Option item 10" style="text;strokeColor=none;align=left;verticalAlign=middle;spacing=16;overflow=visible;points=[[0,0.5],[1,0.5]];portConstraint=eastwest;rotatable=0;whiteSpace=wrap;html=1;fillColor=none;fontSize=15;fontColor=inherit;" vertex="1" parent="6poOxasavAYyhDI9yIW7-5">
          <mxGeometry y="462" width="200" height="42" as="geometry" />
        </mxCell>
        <mxCell id="6poOxasavAYyhDI9yIW7-16" value="" style="strokeColor=none;fillColor=#dddddd;movable=0;" vertex="1" parent="6poOxasavAYyhDI9yIW7-5">
          <mxGeometry x="1" width="4" height="190" relative="1" as="geometry">
            <mxPoint x="-4" y="125" as="offset" />
          </mxGeometry>
        </mxCell>
        <mxCell id="6poOxasavAYyhDI9yIW7-17" style="strokeColor=none;fillColor=#dddddd;movable=0;" vertex="1" parent="6poOxasavAYyhDI9yIW7-5">
          <mxGeometry x="1" width="4" height="190" relative="1" as="geometry">
            <mxPoint x="-4" y="125" as="offset" />
          </mxGeometry>
        </mxCell>
        <mxCell id="6poOxasavAYyhDI9yIW7-18" style="strokeColor=none;fillColor=#dddddd;movable=0;" vertex="1" parent="6poOxasavAYyhDI9yIW7-5">
          <mxGeometry x="1" width="4" height="190" relative="1" as="geometry">
            <mxPoint x="-4" y="125" as="offset" />
          </mxGeometry>
        </mxCell>
        <mxCell id="6poOxasavAYyhDI9yIW7-31" value="" style="whiteSpace=wrap;html=1;rounded=0;shadow=0;labelBackgroundColor=none;strokeWidth=1;fontFamily=Verdana;fontSize=12;align=center;comic=1;fillColor=#f5f5f5;fontColor=#333333;strokeColor=#666666;" vertex="1" parent="1">
          <mxGeometry x="260" y="140" width="800" height="30" as="geometry" />
        </mxCell>
        <mxCell id="6poOxasavAYyhDI9yIW7-32" value="Title" style="text;html=1;align=center;verticalAlign=middle;whiteSpace=wrap;rounded=0;" vertex="1" parent="1">
          <mxGeometry x="260" y="140" width="90" height="30" as="geometry" />
        </mxCell>
        <mxCell id="6poOxasavAYyhDI9yIW7-33" value="Username" style="text;html=1;align=center;verticalAlign=middle;whiteSpace=wrap;rounded=0;" vertex="1" parent="1">
          <mxGeometry x="380" y="140" width="90" height="30" as="geometry" />
        </mxCell>
        <mxCell id="6poOxasavAYyhDI9yIW7-34" value="Password" style="text;html=1;align=center;verticalAlign=middle;whiteSpace=wrap;rounded=0;" vertex="1" parent="1">
          <mxGeometry x="500" y="140" width="90" height="30" as="geometry" />
        </mxCell>
        <mxCell id="6poOxasavAYyhDI9yIW7-35" value="URL" style="text;html=1;align=center;verticalAlign=middle;whiteSpace=wrap;rounded=0;" vertex="1" parent="1">
          <mxGeometry x="630" y="140" width="90" height="30" as="geometry" />
        </mxCell>
        <mxCell id="6poOxasavAYyhDI9yIW7-36" value="NOTES" style="text;html=1;align=center;verticalAlign=middle;whiteSpace=wrap;rounded=0;" vertex="1" parent="1">
          <mxGeometry x="760" y="140" width="90" height="30" as="geometry" />
        </mxCell>
      </root>
    </mxGraphModel>
  </diagram>
</mxfile>
